<svg xmlns="http://www.w3.org/2000/svg" xmlns:xlink="http://www.w3.org/1999/xlink" viewBox="0 0 440.9 500"><defs><style>.a{fill:url(#a);}</style><linearGradient id="a" x1="387.56" y1="457.84" x2="-20.59" y2="49.69" gradientTransform="matrix(1, 0, 0, -1, 0, 500)" gradientUnits="userSpaceOnUse"><stop offset="0" stop-color="#ffc400"/><stop offset="1" stop-color="#ff8010"/></linearGradient></defs><title>dh-logo-quad</title><path class="a" d="M416,311.7a234.07,234.07,0,0,1,54-113.8Q446.45,0,206.3,0H29.1V500H206.3q121.05,0,193.7-69.7a237.59,237.59,0,0,0,19.3-21,236.44,236.44,0,0,1-3.3-97.6Zm-103.5,53q-41.7,43.95-114.9,43.9H141.8V91.7h55.1q74.55,0,116,41,41.25,41,41.2,112.4Q354.1,320.85,312.5,364.7Z" transform="translate(-29.1)"/></svg>