<?xml version="1.0" encoding="utf-8"?>
<!-- Generator: Adobe Illustrator 23.0.3, SVG Export Plug-In . SVG Version: 6.00 Build 0)  -->
<svg version="1.1" id="Ebene_1" xmlns="http://www.w3.org/2000/svg" xmlns:xlink="http://www.w3.org/1999/xlink" x="0px" y="0px"
	 viewBox="0 0 441 500" style="enable-background:new 0 0 441 500;" xml:space="preserve">
<style type="text/css">
	.st0{fill:#383838;}
</style>
<path class="st0" d="M386.9,311.7c7.7-44,27-82.8,54-113.8C425.2,66,337.2,0,177.2,0H0v500h177.2c80.7,0,145.3-23.2,193.7-69.7
	c6.9-6.7,13.4-13.7,19.3-21C382.6,378.5,381,345.3,386.9,311.7z M283.4,364.7c-27.8,29.3-66.1,43.9-114.9,43.9h-55.8V91.7h55.1
	c49.7,0,88.4,13.7,116,41C311.3,160,325,197.5,325,245.1C325,295.6,311.1,335.4,283.4,364.7z"/>
</svg>
