<svg id="Ebene_1" xmlns="http://www.w3.org/2000/svg" viewBox="0 0 1000 500"><style>.st0{fill:#111}.st1{fill:#fff}</style><path class="st0" d="M470.3 142.3H29.7C13.4 142.3 0 128.9 0 112.5v-11.9c0-16.4 13.4-29.7 29.7-29.7h440.5c16.4 0 29.7 13.4 29.7 29.7v11.9c.1 16.4-13.3 29.8-29.6 29.8zM470.3 285.1H29.7C13.4 285.1 0 271.8 0 255.4v-11.9c0-16.4 13.4-29.7 29.7-29.7h440.5c16.4 0 29.7 13.4 29.7 29.7v11.9c.1 16.4-13.3 29.7-29.6 29.7zM470.3 428H29.7C13.4 428 0 414.6 0 398.3v-11.9c0-16.4 13.4-29.7 29.7-29.7h440.5c16.4 0 29.7 13.4 29.7 29.7v11.9c.1 16.3-13.3 29.7-29.6 29.7z"/><g><path class="st1" d="M970.3 142.3H529.7c-16.4 0-29.7-13.4-29.7-29.7v-11.9c0-16.4 13.4-29.7 29.7-29.7h440.5c16.4 0 29.7 13.4 29.7 29.7v11.9c.1 16.3-13.3 29.7-29.6 29.7zM970.3 285.1H529.7c-16.4 0-29.7-13.4-29.7-29.7v-11.9c0-16.4 13.4-29.7 29.7-29.7h440.5c16.4 0 29.7 13.4 29.7 29.7v11.9c.1 16.4-13.3 29.7-29.6 29.7zM970.3 428H529.7c-16.4 0-29.7-13.4-29.7-29.7v-11.9c0-16.4 13.4-29.7 29.7-29.7h440.5c16.4 0 29.7 13.4 29.7 29.7v11.9c.1 16.3-13.3 29.7-29.6 29.7z"/></g></svg>