<?xml version="1.0" encoding="utf-8"?>
<!-- Generator: Adobe Illustrator 18.0.0, SVG Export Plug-In . SVG Version: 6.00 Build 0)  -->
<!DOCTYPE svg PUBLIC "-//W3C//DTD SVG 1.1//EN" "http://www.w3.org/Graphics/SVG/1.1/DTD/svg11.dtd">
<svg version="1.1" id="Ebene_1" xmlns="http://www.w3.org/2000/svg" xmlns:xlink="http://www.w3.org/1999/xlink" x="0px" y="0px"
	 viewBox="-500 0 2000 1000" enable-background="new -500 0 2000 1000" xml:space="preserve">
<path opacity="0.5" fill="#FFFFFF" d="M0,982.5c-65.1,0-128.3-12.8-187.8-37.9c-57.5-24.3-109.1-59.1-153.4-103.4
	c-44.3-44.3-79.1-95.9-103.4-153.4c-25.2-59.5-37.9-122.7-37.9-187.8c0-65.1,12.8-128.3,37.9-187.8
	c24.3-57.5,59.1-109.1,103.4-153.4c44.3-44.3,95.9-79.1,153.4-103.4C-128.3,30.3-65.1,17.5,0,17.5s128.3,12.8,187.8,37.9
	c57.5,24.3,109.1,59.1,153.4,103.4c44.3,44.3,79.1,95.9,103.4,153.4c25.2,59.5,37.9,122.7,37.9,187.8c0,65.1-12.8,128.3-37.9,187.8
	c-24.3,57.5-59.1,109.1-103.4,153.4c-44.3,44.3-95.9,79.1-153.4,103.4C128.3,969.7,65.1,982.5,0,982.5z"/>
<path d="M0,35c62.8,0,123.7,12.3,181,36.5c55.4,23.4,105.1,57,147.8,99.7c42.7,42.7,76.2,92.4,99.7,147.8
	c24.2,57.3,36.5,118.2,36.5,181s-12.3,123.7-36.5,181c-23.4,55.4-57,105.1-99.7,147.8c-42.7,42.7-92.4,76.2-147.8,99.7
	C123.7,952.7,62.8,965,0,965s-123.7-12.3-181-36.5c-55.4-23.4-105.1-57-147.8-99.7c-42.7-42.7-76.2-92.4-99.7-147.8
	c-24.2-57.3-36.5-118.2-36.5-181s12.3-123.7,36.5-181c23.4-55.4,57-105.1,99.7-147.8c42.7-42.7,92.4-76.2,147.8-99.7
	C-123.7,47.3-62.8,35,0,35 M0,0c-276.1,0-500,223.9-500,500s223.9,500,500,500s500-223.9,500-500S276.1,0,0,0L0,0z"/>
<g>
	<path fill="#111111" d="M222.2,391.9h-444.3c-16.5,0-30-13.5-30-30v-12c0-16.5,13.5-30,30-30h444.3c16.5,0,30,13.5,30,30v12
		C252.2,378.4,238.7,391.9,222.2,391.9z"/>
	<path fill="#111111" d="M222.2,536h-444.3c-16.5,0-30-13.5-30-30v-12c0-16.5,13.5-30,30-30h444.3c16.5,0,30,13.5,30,30v12
		C252.2,522.5,238.7,536,222.2,536z"/>
	<path fill="#111111" d="M222.2,680.1h-444.3c-16.5,0-30-13.5-30-30v-12c0-16.5,13.5-30,30-30h444.3c16.5,0,30,13.5,30,30v12
		C252.2,666.6,238.7,680.1,222.2,680.1z"/>
</g>
<g opacity="0.5">
	<path fill="#FFFFFF" d="M1000,982c-65.1,0-128.3-12.8-187.8-37.9c-57.5-24.3-109.1-59.1-153.4-103.4
		c-44.3-44.3-79.1-95.9-103.4-153.4c-25.2-59.5-37.9-122.7-37.9-187.8c0-65.1,12.8-128.3,37.9-187.8
		c24.3-57.5,59.1-109.1,103.4-153.4c44.3-44.3,95.9-79.1,153.4-103.4C871.7,29.8,934.9,17,1000,17s128.3,12.8,187.8,37.9
		c57.5,24.3,109.1,59.1,153.4,103.4c44.3,44.3,79.1,95.9,103.4,153.4c25.2,59.5,37.9,122.7,37.9,187.8c0,65.1-12.8,128.3-37.9,187.8
		c-24.3,57.5-59.1,109.1-103.4,153.4c-44.3,44.3-95.9,79.1-153.4,103.4C1128.3,969.2,1065.1,982,1000,982z"/>
	<path d="M1000,34.5c62.8,0,123.7,12.3,181,36.5c55.4,23.4,105.1,57,147.8,99.7c42.7,42.7,76.2,92.4,99.7,147.8
		c24.2,57.3,36.5,118.2,36.5,181s-12.3,123.7-36.5,181c-23.4,55.4-57,105.1-99.7,147.8c-42.7,42.7-92.4,76.2-147.8,99.7
		c-57.3,24.2-118.2,36.5-181,36.5S876.3,952.2,819,928c-55.4-23.4-105.1-57-147.8-99.7c-42.7-42.7-76.2-92.4-99.7-147.8
		c-24.2-57.3-36.5-118.2-36.5-181s12.3-123.7,36.5-181c23.4-55.4,57-105.1,99.7-147.8C713.9,128,763.6,94.4,819,71
		C876.3,46.8,937.2,34.5,1000,34.5 M1000-0.5c-276.1,0-500,223.9-500,500s223.9,500,500,500s500-223.9,500-500S1276.1-0.5,1000-0.5
		L1000-0.5z"/>
</g>
<path fill="#111111" d="M1170,733.2L766.3,329.5c-11.7-11.7-11.7-30.8,0-42.4l21.3-21.3c11.7-11.7,30.8-11.7,42.4,0l403.8,403.8
	c11.7,11.7,11.7,30.8,0,42.4l-21.3,21.3C1200.8,744.9,1181.7,744.9,1170,733.2z"/>
<path fill="#111111" d="M1233.7,329.5L830,733.2c-11.7,11.7-30.8,11.7-42.4,0l-21.3-21.3c-11.7-11.7-11.7-30.8,0-42.4L1170,265.8
	c11.7-11.7,30.8-11.7,42.4,0l21.3,21.3C1245.4,298.7,1245.4,317.8,1233.7,329.5z"/>
</svg>
