<?xml version="1.0" encoding="utf-8"?>
<!-- Generator: Adobe Illustrator 23.0.3, SVG Export Plug-In . SVG Version: 6.00 Build 0)  -->
<svg version="1.1" id="Ebene_1" xmlns="http://www.w3.org/2000/svg" xmlns:xlink="http://www.w3.org/1999/xlink" x="0px" y="0px"
	 viewBox="0 0 1000 500" style="enable-background:new 0 0 1000 500;" xml:space="preserve">
<style type="text/css">
	.st0{fill:#111111;}
	.st1{fill:#FFFFFF;}
</style>
<g>
	<path class="st0" d="M470.3,142.3H29.7C13.4,142.3,0,128.9,0,112.5v-11.9c0-16.4,13.4-29.7,29.7-29.7h440.5
		c16.4,0,29.7,13.4,29.7,29.7v11.9C500,128.9,486.6,142.3,470.3,142.3L470.3,142.3z"/>
	<path class="st0" d="M470.3,285.1H29.7C13.4,285.1,0,271.8,0,255.4v-11.9c0-16.4,13.4-29.7,29.7-29.7h440.5
		c16.4,0,29.7,13.4,29.7,29.7v11.9C500,271.8,486.6,285.1,470.3,285.1L470.3,285.1z"/>
	<path class="st0" d="M470.3,428H29.7C13.4,428,0,414.6,0,398.3v-11.9c0-16.4,13.4-29.7,29.7-29.7h440.5c16.4,0,29.7,13.4,29.7,29.7
		v11.9C500,414.6,486.6,428,470.3,428L470.3,428z"/>
</g>
<g>
	<path class="st1" d="M970.3,142.3H529.7c-16.4,0-29.7-13.4-29.7-29.7v-11.9c0-16.4,13.4-29.7,29.7-29.7h440.5
		c16.4,0,29.7,13.4,29.7,29.7v11.9C1000,128.9,986.6,142.3,970.3,142.3L970.3,142.3z"/>
	<path class="st1" d="M970.3,285.1H529.7c-16.4,0-29.7-13.4-29.7-29.7v-11.9c0-16.4,13.4-29.7,29.7-29.7h440.5
		c16.4,0,29.7,13.4,29.7,29.7v11.9C1000,271.8,986.6,285.1,970.3,285.1L970.3,285.1z"/>
	<path class="st1" d="M970.3,428H529.7c-16.4,0-29.7-13.4-29.7-29.7v-11.9c0-16.4,13.4-29.7,29.7-29.7h440.5
		c16.4,0,29.7,13.4,29.7,29.7v11.9C1000,414.6,986.6,428,970.3,428L970.3,428z"/>
</g>
</svg>
