<?xml version="1.0" encoding="utf-8"?>
<!-- Generator: Adobe Illustrator 23.0.3, SVG Export Plug-In . SVG Version: 6.00 Build 0)  -->
<svg version="1.1" id="Ebene_1" xmlns="http://www.w3.org/2000/svg" xmlns:xlink="http://www.w3.org/1999/xlink" x="0px" y="0px"
	 viewBox="0 0 1000 500" style="enable-background:new 0 0 1000 500;" xml:space="preserve">
<style type="text/css">
	.st0{fill:#111111;}
	.st1{fill:#FFFFFF;}
</style>
<g>
	<path class="st0" d="M168,113c0-37.9,8.5-73.9,23.6-106.1C81.7,33.2,0,132,0,250c0,138.1,111.9,250,250,250
		c100.1,0,186.5-58.9,226.4-143.9c-18.7,4.5-38.3,6.9-58.4,6.9C279.9,363,168,251.1,168,113z"/>
</g>
<g>
	<path class="st1" d="M668,113c0-37.9,8.5-73.9,23.6-106.1C581.7,33.2,500,132,500,250c0,138.1,111.9,250,250,250
		c100.1,0,186.5-58.9,226.4-143.9c-18.7,4.5-38.3,6.9-58.4,6.9C779.9,363,668,251.1,668,113z"/>
</g>
</svg>
