<?xml version="1.0" encoding="utf-8"?>
<!-- Generator: Adobe Illustrator 23.0.3, SVG Export Plug-In . SVG Version: 6.00 Build 0)  -->
<svg version="1.1" id="Ebene_1" xmlns="http://www.w3.org/2000/svg" xmlns:xlink="http://www.w3.org/1999/xlink" x="0px" y="0px"
	 viewBox="0 0 500 500" style="enable-background:new 0 0 500 500;" xml:space="preserve">
<style type="text/css">
	.st0{fill:url(#SVGID_1_);stroke:#000000;stroke-width:7;stroke-miterlimit:10;}
</style>
<linearGradient id="SVGID_1_" gradientUnits="userSpaceOnUse" x1="354.1088" y1="400.964" x2="47.366" y2="94.2212">
	<stop  offset="0" style="stop-color:#FF8010"/>
	<stop  offset="1" style="stop-color:#FFC400"/>
</linearGradient>
<path class="st0" d="M412.4,200.1c-5.9-40.9-20.7-73.8-45.2-98.2c-13.8-13.8-30.8-24.9-51-32.9c-26-10.1-57.3-15.5-93.9-15.5H88V447
	h130.6c37.2,0,70.1-7.4,98.2-21.2l6.4-3.2c28.1-15.4,49.9-37.7,65.3-65.8c-4.8-17-7.4-36.6-7.4-57.9c0-28.1,5.9-53.6,17-75.4
	C401.8,214.5,407.1,207,412.4,200.1z M316.9,324.3c-4.3,10.6-9.5,20.2-15.9,27.6c-18.6,22.3-44.1,33.4-77,33.4
	c-23.3,0-40.9-1.6-52.6-4.3V121l10.1-1.6c13.3-2.7,24.4-3.7,33.4-3.7c26.5,0,47.8,4.3,64.2,12.7c16.5,8.5,28.7,22.8,37.2,42.5
	l0.5,1.1c7.9,19.6,11.7,45.2,11.7,77.5C328.5,279.2,324.3,304.2,316.9,324.3z"/>
</svg>
