<svg version="1" xmlns="http://www.w3.org/2000/svg" width="933.333" height="933.333" viewBox="0 0 700.000000 700.000000"><path d="M118.4 350.2l.1 280.3h102c56.1-.1 106.8-.4 112.6-.8 36.7-2.5 73.4-11.5 105.7-26.1 12-5.4 11.1-4.9 22.7-11.7 34-20 63.1-49.2 82.9-83.6l4.7-8.1-2.6-10.6c-2.3-9.9-4.8-24.2-5.9-34.6-.3-2.5-.8-7-1.1-10.2-.9-8.1-1-39.9-.1-49.3 2.7-28.6 9.4-52.8 22.1-80.1 5.3-11.1 16.6-29.5 19.8-32.2 1.4-1.2 1-4.2-2.7-24.2-3.9-20.2-12.9-46.6-22.7-66.3-22.5-45.1-62.6-81.7-108.9-99.4-3.6-1.4-7.4-2.9-8.5-3.3-5.8-2.5-31-9.8-39.5-11.5-5.2-1-10.6-2-11.5-2-.5-.1-2.3-.4-4-.8-1.6-.3-5.5-.9-8.5-1.3-3-.3-5.7-.7-6-.9-.3-.2-4.3-.6-9-1s-10.1-1-12-1.3c-1.9-.3-54.4-.7-116.6-.9l-113.1-.4.1 280.3zM328 168.1c7.7 1 20.9 3 23 3.4 50.1 10.7 76.5 35.3 93.4 87 1.6 5.2 5.4 22.4 6.2 28.5.2 1.9.9 6.2 1.4 9.5 3.7 24.1 3.4 83-.5 104.5-.3 1.4-.8 4.3-1.1 6.5-2.5 17.5-9.3 41.1-15.6 54.4-3.7 7.7-11.4 20.7-14.2 23.7-.6.7-3.1 3.7-5.6 6.6-8.4 10-21.3 20.2-34 26.9-14.9 7.9-27.4 11.5-49.5 14.5-9.8 1.3-51.3.6-64.5-1.1-1.9-.3-6-.7-9-1.1-3-.3-7.1-.9-9-1.3l-3.5-.7-.3-178.2L245 173l2.7-.1c3-.1 4.8-.3 12.8-1.9 6.6-1.3 9.8-1.8 17-2.6 3.3-.3 6.1-.7 6.3-.9.8-.7 38.3-.2 44.2.6z"/></svg>