<?xml version="1.0" standalone="no"?>
<!DOCTYPE svg PUBLIC "-//W3C//DTD SVG 20010904//EN"
 "http://www.w3.org/TR/2001/REC-SVG-20010904/DTD/svg10.dtd">
<svg version="1.0" xmlns="http://www.w3.org/2000/svg"
 width="700.000000pt" height="700.000000pt" viewBox="0 0 700.000000 700.000000"
 preserveAspectRatio="xMidYMid meet">
<metadata>
Created by potrace 1.11, written by Peter Selinger 2001-2013
</metadata>
<g transform="translate(0.000000,700.000000) scale(0.100000,-0.100000)"
fill="#000000" stroke="none">
<path d="M413 3500 l0 -3501 1426 4 c784 2 1446 7 1471 10 25 3 69 8 99 11 62
6 116 13 211 26 36 5 81 12 100 14 155 22 389 80 600 149 301 97 552 217 810
385 94 62 257 182 306 227 6 5 37 33 69 60 115 99 341 335 359 375 6 13 3 47
-8 97 -27 129 -44 225 -52 303 -2 25 -7 61 -10 80 -10 60 -13 511 -4 590 4 41
11 107 15 145 4 39 9 72 10 75 2 3 6 30 10 60 4 30 9 58 11 61 2 4 6 24 10 45
6 40 30 144 59 249 20 76 92 288 115 340 10 22 34 77 54 123 59 136 143 290
231 427 51 79 190 272 205 285 20 17 79 94 76 99 -2 3 -6 29 -10 56 -7 72 -15
117 -36 230 -161 842 -554 1465 -1185 1881 -148 97 -360 207 -530 274 -11 4
-36 15 -56 24 -114 50 -419 137 -629 180 -179 36 -246 47 -368 61 -26 3 -59 8
-75 11 -15 2 -49 6 -75 9 -26 2 -80 7 -121 10 -40 4 -101 9 -135 12 -33 3
-712 7 -1507 10 l-1446 4 0 -3501z m2622 2206 c22 -2 63 -7 90 -10 496 -53
910 -228 1217 -513 224 -207 396 -478 494 -773 28 -85 70 -246 78 -304 4 -21
8 -41 10 -45 2 -3 7 -35 11 -71 3 -36 8 -78 10 -95 8 -59 17 -222 17 -325 1
-355 -50 -676 -152 -967 -65 -185 -176 -391 -299 -553 -56 -75 -241 -268 -296
-310 -11 -8 -47 -36 -80 -61 -217 -166 -587 -320 -850 -355 -27 -3 -53 -8 -56
-10 -3 -2 -34 -6 -70 -10 -35 -3 -93 -10 -129 -14 -36 -4 -284 -8 -552 -9
l-488 -2 0 2219 0 2219 503 -3 c276 -1 520 -5 542 -8z"/>
</g>
</svg>
